# xmcd
#
# Track frame offsets: 
#        150
#        15552
#        32929
#        46473
#        63748
#        79567
#        97101
#        112395
#        126788
#        144963
#        156400
#
# Disc length: 2354 seconds
#
# Revision: 0
# Processed by: cddbd v1.5.2PL0 Copyright (c) Steve Scherf et al.
# Submitted via: ExactAudioCopy v1.0b3
#
DISCID=9b09300b
DTITLE=Eleven Hundred Springs - Midway
DYEAR=2012
DGENRE=Country
TTITLE0=What Do You Know
TTITLE1=Hard Working Just Ain't Working Anymore
TTITLE2=It's The Small Things
TTITLE3=Afghanistan
TTITLE4=I'm A S.O.B. (When I'm S-O-B-E-R)
TTITLE5=It Was Only
TTITLE6=Some Place Else To Be
TTITLE7=The Walkin' Blues
TTITLE8=Promises In Pieces
TTITLE9=There Ain't Enough Hours In A Day
TTITLE10=Getaway
EXTD=
EXTT0=
EXTT1=
EXTT2=
EXTT3=
EXTT4=
EXTT5=
EXTT6=
EXTT7=
EXTT8=
EXTT9=
EXTT10=
PLAYORDER=
